# xmcd
#
# Track frame offsets:
#	150
#	11804
#	28109
#	43460
#	58788
#	79355
#	89274
#	101549
#	118208
#	135870
#	148145
#	165129
#
# Disc length: 2395 seconds
# Revision: 0
# Processed by: cddbd v1.5.2PL0 Copyright (c) Steve Scherf et al.
# Submitted via: dBpowerAMP V12.0
#
DISCID=a209590c
DTITLE=Tennessee Ernie Ford - Hymns at Home [Capitol] (L)
DYEAR=1962
DGENRE=Gospel
TTITLE0=Sweet Hour Of Prayer
TTITLE1=My Jesus, I Love Thee
TTITLE2=Day Is Dying In The West
TTITLE3=Break Thou The Bread Of Life
TTITLE4=Did You Think To Pray
TTITLE5=Blest Be The Tie That Binds
TTITLE6=His Amazing Grace
TTITLE7=My Faith Looks Up To Thee
TTITLE8=Holy Spirit, Faithful Guide
TTITLE9=Jesus Paid It All
TTITLE10=Jesus Paid It All
TTITLE11=Comin' Home
EXTD=
EXTT0=
EXTT1=
EXTT2=
EXTT3=
EXTT4=
EXTT5=
EXTT6=
EXTT7=
EXTT8=
EXTT9=
EXTT10=
EXTT11=
PLAYORDER=
